<svg xmlns="http://www.w3.org/2000/svg" width="840" height="136" viewBox="0 0 840 136" fill="none"><path fill-rule="evenodd" clip-rule="evenodd" d="M229.198 57.9654C227.882 60.5094 222.202 70.3306 209.748 70.3306C196.436 70.3306 187.266 59.0895 187.266 46.3398C187.266 33.9599 196.052 22.5414 209.645 22.5414C220.782 22.6301 227.024 30.4693 229.198 35.2911H244.019C241.282 25.0854 229.849 10.265 209.733 10.1615C187.636 10.1615 173.185 27.733 173.185 46.3398C173.185 65.7897 188.479 82.6957 209.837 82.6957C226.181 82.6957 239.774 72.4012 244.033 57.9506H229.198V57.9654ZM250.453 55.4066C250.453 68.8219 260.185 82.888 278.215 82.888C296.26 82.888 305.977 68.8219 305.977 55.4066C305.977 42.0949 296.245 28.014 278.215 28.014C260.17 28.014 250.453 42.0801 250.453 55.3031V55.4066ZM262.818 55.4066C262.818 46.2511 269.71 39.5361 278.215 39.5361C286.72 39.5361 293.509 46.2363 293.509 55.4066C293.509 64.5621 286.705 71.2771 278.215 71.2771C269.71 71.2771 262.818 64.5769 262.818 55.5101V55.4066ZM368.602 11.4927H356.222V28.6796V36.2377C354.328 33.2204 348.767 27.9253 338.842 27.9253C324.776 27.9253 312.781 38.6042 312.781 55.4066C312.781 70.5228 323.075 82.9915 339.035 82.9915C349.61 82.9915 354.521 77.7999 356.784 73.9247V81.3793H368.587V11.4927H368.602ZM325.161 55.3179C325.161 47.1977 331.018 39.4473 341.12 39.4473C345.557 39.4473 349.521 41.1483 352.361 43.9733C355.201 46.7096 356.991 50.5848 356.991 55.1256C357.183 59.6516 355.482 63.719 352.553 66.6476C349.625 69.5762 345.557 71.3659 341.031 71.3659C331.491 71.3659 325.161 64.1923 325.161 55.4066V55.3179ZM431.877 59.5628C432.912 50.496 430.56 42.3759 424.23 35.8531C419.408 30.8538 412.619 27.9253 404.869 27.9253C389.19 27.9253 377.668 40.8672 377.668 55.5989C377.668 70.0495 389.102 82.9915 405.061 82.9915C410.445 82.9915 415.548 81.4828 419.896 78.4655C424.245 75.5369 427.927 71.1884 430.383 65.4348H417.633C415.267 69.6798 411.214 72.4308 405.164 72.4308C398.08 72.5196 390.714 67.8901 390.152 59.5924H431.877V59.5628ZM390.329 50.1263C390.803 45.0234 395.802 38.412 404.972 38.412C414.039 38.3232 419.23 45.2157 419.704 50.1263H390.329Z" fill="url(#paint0_linear_8_48)"></path><path fill-rule="evenodd" clip-rule="evenodd" d="M501.749 82.0004H514.114V53.957C514.114 50.9397 514.587 47.7301 516.096 44.979C517.605 42.3314 520.445 40.1572 524.971 40.1572C529.408 40.2459 531.967 42.2279 533.475 44.979C534.792 47.6265 535.088 50.5551 535.088 53.5725V82.0004H547.467V53.5725C547.467 50.4516 547.66 47.7153 549.257 44.8903C550.869 42.0504 553.887 40.172 558.235 40.172C562.584 40.172 565.039 41.8729 566.355 44.4169C568.145 47.1532 568.426 50.7474 568.426 54.0458V82.0004H580.791V53.5725C580.791 42.8935 579.845 38.6485 575.126 33.738C571.162 29.6705 565.675 28.5464 561.341 28.5464C555.869 28.5464 551.328 30.6171 548.118 33.6492C546.417 35.2614 545.278 36.9476 544.347 38.5598C543.681 37.2434 542.365 35.0692 541.226 33.8415C537.454 29.774 532.721 28.5464 528.476 28.5464C519.498 28.5464 514.499 34.3148 513.36 36.6666V30.1438H501.749V82.0004ZM646.24 30.1438H633.875V37.7019C631.612 33.5457 625.844 28.5464 616.407 28.5464C601.868 28.5464 590.05 39.6839 590.05 56.0277C590.05 70.6706 599.783 83.6126 616.407 83.6126C623.685 83.6126 630.577 80.5953 633.875 74.5458V82.0004H646.24V30.1438ZM602.415 56.22C602.415 48.1886 608.08 40.0684 618.094 40.0684C625.548 40.0684 630.37 44.3134 632.544 49.2239C633.58 51.4869 634.053 54.0457 633.964 56.501C633.772 59.045 633.21 61.5004 631.982 63.7782C629.616 68.4964 625.09 72.0906 618.197 72.0906C607.06 72.0906 602.43 62.7427 602.43 56.3235V56.22H602.415ZM661.919 82.0004H674.284V39.6839H683.158V30.1438H674.284V12.099H661.919V30.1438H653.325V39.6839H661.919V82.0004ZM693.749 82.0004H706.114V39.6839H714.988V30.1438H706.114V12.099H693.749V30.1438H685.155V39.6839H693.749V82.0004ZM722.088 82.0004H734.453V54.0458C734.453 45.0677 738.89 41.0151 747.587 41.0151H748.149V28.5464C740.31 28.6351 736.065 32.3181 733.787 36.9476V30.1438H722.073V82.0004H722.088ZM755.707 23.1625H768.087V12.1138H755.707V23.1625ZM755.707 82.0004H768.087V30.1438H755.707V82.0004Z" fill="url(#paint1_linear_8_48)"></path><path fill-rule="evenodd" clip-rule="evenodd" d="M790.983 87.0142L807.046 60.4943L823.952 87.3249H840L815.817 50.8655L837.545 17.4235H821.674L807.608 40.29L793.35 17.4235H777.39L799.295 50.5844L775.231 87.0142H496.394L472.419 50.8655L494.146 17.4235H478.276L464.21 40.29L449.951 17.4235H433.977L455.897 50.5844L431.833 87.0142H173.393V89.4843H446.076L447.392 87.3249L447.437 87.2509L447.585 87.0142L463.633 60.4943L480.346 87.0142L480.479 87.2065L480.539 87.3249H480.553L481.929 89.4843H789.504L791.013 87.0142H790.983Z" fill="url(#paint2_linear_8_48)"></path><path fill-rule="evenodd" clip-rule="evenodd" d="M216.361 124.612H228.534V120.767H220.724V115.516H228.386V111.671H220.724V106.745H228.534V102.9H216.361V124.612ZM246.49 102.9H242.585V124.612H246.786L246.697 109.6L256.681 124.612H260.556V102.9H256.355L256.444 117.942L246.49 102.9ZM281.396 124.612H285.819L293.599 102.9H289.087L283.6 119.391L278.172 102.9H273.66L281.396 124.612ZM306.659 124.612H311.037V102.9H306.659V124.612ZM324.526 117.868C324.497 122.068 327.055 125.027 331.981 125.027C337.084 125.027 339.228 121.773 339.228 118.282C339.228 115.206 337.379 113.623 334.066 112.173C330.398 110.65 329.23 110.236 329.259 108.624C329.259 107.159 330.487 106.154 331.922 106.154C334.066 106.154 334.451 107.825 334.613 108.816H338.932C338.755 104.009 334.939 102.485 332.069 102.485C328.549 102.485 324.881 104.748 324.881 108.905C324.881 113.016 328.668 114.362 330.309 114.954C333.327 116.152 334.88 116.625 334.88 118.474C334.88 119.998 333.593 121.344 331.922 121.344C330.99 121.344 329.023 120.782 328.875 117.853H324.526V117.868ZM352.703 124.612H357.081V102.9H352.703V124.612ZM370.777 113.963C370.777 119.776 375.466 125.027 382.121 125.027C388.748 125.027 393.555 119.924 393.555 113.756C393.555 107.603 388.718 102.485 382.151 102.485C376.102 102.485 370.777 106.967 370.777 113.919V113.963ZM375.14 113.726C375.14 109.91 377.832 106.331 382.181 106.331C386.603 106.331 389.192 110.147 389.192 113.786C389.192 117.365 386.618 121.181 382.21 121.181C377.98 121.181 375.14 117.72 375.14 113.756V113.726ZM411.215 102.9H407.31V124.612H411.511L411.422 109.6L421.406 124.612H425.281V102.9H421.081L421.169 117.942L411.215 102.9ZM444.435 120.264H440.412V124.612H444.435V120.264ZM474.963 124.612H482.181C490.065 124.612 493.304 119.865 493.304 113.726C493.304 111.064 492.653 108.653 491.071 106.656C488.482 103.166 484.563 102.9 481.856 102.9H474.963V124.612ZM479.327 106.745H482.433C485.08 106.745 486.545 107.736 487.447 108.919C488.467 110.265 488.911 112.085 488.911 113.786C488.911 117.69 487.092 120.767 482.403 120.767H479.327V106.745ZM507.03 124.612H519.203V120.767H511.393V115.516H519.055V111.671H511.393V106.745H519.203V102.9H507.03V124.612ZM532.086 117.868C532.056 122.068 534.615 125.027 539.54 125.027C544.643 125.027 546.788 121.773 546.788 118.282C546.788 115.206 544.939 113.623 541.626 112.173C537.958 110.65 536.789 110.236 536.819 108.624C536.819 107.159 538.046 106.154 539.481 106.154C541.626 106.154 542.01 107.825 542.173 108.816H546.492C546.314 104.009 542.498 102.485 539.629 102.485C536.109 102.485 532.441 104.748 532.441 108.905C532.441 113.016 536.227 114.362 537.869 114.954C540.886 116.152 542.439 116.625 542.439 118.474C542.439 119.998 541.152 121.344 539.481 121.344C538.549 121.344 536.582 120.782 536.434 117.853H532.086V117.868ZM560.247 124.612H564.625V102.9H560.247V124.612ZM600.434 109.57C599.029 105.606 594.71 102.5 589.814 102.5C583.484 102.5 578.322 107.218 578.322 113.712C578.322 120.013 583.277 125.041 589.755 125.041C593.66 125.041 598.319 123.045 600.345 118.533C601.173 116.714 601.366 114.51 601.307 113.076H588.172V116.596H596.263C595.938 117.883 595.183 119.066 594.03 119.879C592.92 120.708 591.441 121.196 589.711 121.196C586.25 121.196 582.67 118.622 582.67 113.712C582.67 108.993 586.22 106.346 589.711 106.346C591.382 106.346 592.758 106.908 593.882 107.781C594.532 108.283 595.05 108.89 595.494 109.57H600.434ZM618.849 102.9H614.944V124.612H619.144L619.056 109.6L629.039 124.612H632.915V102.9H628.714L628.803 117.942L618.849 102.9ZM652.083 120.264H648.06V124.612H652.083V120.264ZM699.059 117.335C698.645 118.134 696.885 121.181 693.01 121.181C688.868 121.181 686.028 117.69 686.028 113.726C686.028 109.881 688.75 106.331 692.98 106.331C696.441 106.361 698.379 108.801 699.059 110.295H703.659C702.801 107.13 699.266 102.515 693.01 102.485C686.147 102.485 681.665 107.943 681.665 113.726C681.665 119.776 686.413 125.027 693.039 125.027C698.112 125.027 702.343 121.832 703.659 117.335H699.059ZM716.276 113.963C716.276 119.776 720.964 125.027 727.62 125.027C734.246 125.027 739.053 119.924 739.053 113.756C739.053 107.603 734.217 102.485 727.65 102.485C721.6 102.485 716.276 106.967 716.276 113.919V113.963ZM720.654 113.726C720.654 109.91 723.346 106.331 727.694 106.331C732.117 106.331 734.705 110.147 734.705 113.786C734.705 117.365 732.131 121.181 727.724 121.181C723.494 121.181 720.654 117.72 720.654 113.756V113.726ZM752.809 124.612H760.027C767.91 124.612 771.15 119.865 771.15 113.726C771.15 111.064 770.499 108.653 768.916 106.656C766.328 103.166 762.408 102.9 759.701 102.9H752.809V124.612ZM757.172 106.745H760.278C762.926 106.745 764.39 107.736 765.292 108.919C766.313 110.265 766.757 112.085 766.757 113.786C766.757 117.69 764.937 120.767 760.249 120.767H757.172V106.745ZM784.875 124.612H797.048V120.767H789.239V115.516H796.9V111.671H789.239V106.745H797.048V102.9H784.875V124.612Z" fill="#04242D"></path><path fill-rule="evenodd" clip-rule="evenodd" d="M106.346 17.8969L96.584 26.1353L94.7056 27.7328L92.9751 29.1971C85.5501 23.9315 77.0601 21.21 67.9342 21.21C65.3606 21.21 62.861 21.4171 60.4353 21.8016L55.9832 18.0004C59.7845 17.0982 63.7928 16.6101 67.949 16.6101C77.8884 16.6101 86.0826 19.5091 92.5609 23.4138L102.619 15.131C93.5223 8.93367 81.9411 4.59992 67.949 4.59992C58.9266 4.59992 50.4958 6.33044 42.9229 9.45131H32.7025C42.9082 3.43144 54.9479 0 67.949 0C82.3109 0 95.8297 4.31889 107.367 12.868C108.239 13.504 109.097 14.1844 109.94 14.8647L108.431 16.1368L106.346 17.8969ZM27.2151 46.8277C24.3013 53.0251 22.6891 60.0063 22.6891 67.4313C22.6891 75.2557 24.4492 82.6215 27.6292 89.0851L27.718 98.1814C21.6389 89.6915 18.1039 79.0865 18.1039 67.4313C18.1039 56.3234 21.4023 46.0882 27.1412 37.7757L27.2151 46.8277ZM60.7755 113.46C63.0976 113.815 65.4789 113.993 67.9342 113.993C76.9714 113.993 85.3282 111.464 92.6941 106.405L95.4451 108.727L96.3326 109.467L106.361 117.927L106.952 118.43L109.955 120.959C108.579 122.039 107.159 123.06 105.695 124.021C94.5281 131.402 81.4826 135.188 68.0969 135.188C55.1993 135.188 43.2335 131.816 33.0427 125.87H43.4259C50.9544 128.917 59.2668 130.588 68.1117 130.588C81.1276 130.588 92.8271 126.787 102.323 120.737L92.3982 112.04C86.0825 115.753 77.992 118.578 67.949 118.578C63.9259 118.578 60.0507 118.119 56.353 117.276L60.7755 113.46ZM27.9399 122.586L27.8807 116.803C13.5336 105.325 4.59997 87.6651 4.59997 67.594C4.59997 48.0997 13.0603 30.6318 26.9489 19.0653L26.8897 13.2822C10.4571 25.4698 0 45.0084 0 67.594C0 90.6381 10.9156 110.473 27.9399 122.586Z" fill="url(#paint3_linear_8_48)"></path><path fill-rule="evenodd" clip-rule="evenodd" d="M43.1592 27.2003L85.4314 63.6301L128.487 26.4904V108.491L95.0601 80.0479L118.607 60.2873V66.1445L101.997 80.0774L123.991 98.8027V36.2819L85.4314 69.5316L43.1592 33.1019V27.2003Z" fill="url(#paint4_linear_8_48)"></path><path fill-rule="evenodd" clip-rule="evenodd" d="M43.1592 95.7408V52.4185L76.1871 80.0181L43.1592 108.86V102.914L51.0871 95.9922L58.0535 89.9575L58.024 89.928L69.2946 80.0921L47.6556 62.0177V91.8508L43.1592 95.7408Z" fill="url(#paint5_linear_8_48)"></path><path fill-rule="evenodd" clip-rule="evenodd" d="M24.4199 7.01099H45.4377L85.8314 40.808L126.225 7.01099H147.243V128.754H126.225L85.8314 94.9571L45.4377 128.754H24.4199V7.01099ZM43.9586 11.1376H28.5465V124.642H43.9586L85.8314 89.6177L127.704 124.642H143.116V11.1376H127.704L85.8314 46.1623L43.9586 11.1376Z" fill="url(#paint6_linear_8_48)"></path><defs><linearGradient id="paint0_linear_8_48" x1="346.694" y1="32.936" x2="-161.395" y2="205.071" gradientUnits="userSpaceOnUse"><stop stop-color="#03151A"></stop><stop offset="1" stop-color="white"></stop></linearGradient><linearGradient id="paint1_linear_8_48" x1="687.891" y1="37.2721" x2="123.616" y2="237.554" gradientUnits="userSpaceOnUse"><stop stop-color="#03151A"></stop><stop offset="1" stop-color="white"></stop></linearGradient><linearGradient id="paint2_linear_8_48" x1="506.744" y1="18.6144" x2="506.695" y2="91.1297" gradientUnits="userSpaceOnUse"><stop stop-color="#D61F26"></stop><stop offset="1" stop-color="#EE3124"></stop></linearGradient><linearGradient id="paint3_linear_8_48" x1="124.399" y1="46.8039" x2="-214.767" y2="171.529" gradientUnits="userSpaceOnUse"><stop stop-color="#03151A"></stop><stop offset="1" stop-color="white"></stop></linearGradient><linearGradient id="paint4_linear_8_48" x1="86.0617" y1="27.8325" x2="85.5723" y2="109.844" gradientUnits="userSpaceOnUse"><stop stop-color="#D61F26"></stop><stop offset="1" stop-color="#EE3124"></stop></linearGradient><linearGradient id="paint5_linear_8_48" x1="74.8753" y1="71.9778" x2="-40.7978" y2="103.568" gradientUnits="userSpaceOnUse"><stop stop-color="#03151A"></stop><stop offset="1" stop-color="white"></stop></linearGradient><linearGradient id="paint6_linear_8_48" x1="86.1945" y1="9.01485" x2="85.4404" y2="131.537" gradientUnits="userSpaceOnUse"><stop stop-color="#D61F26"></stop><stop offset="1" stop-color="#EE3124"></stop></linearGradient></defs></svg>